<svg width="512" height="512" viewBox="0 0 512 512" fill="none" xmlns="http://www.w3.org/2000/svg">
<path d="M243.456 57.8775C234.612 49.5277 223.281 44.2983 211.189 42.9862C199.097 41.674 186.908 44.3512 176.479 50.6096C166.05 56.8681 157.953 66.3646 153.422 77.6519C148.891 88.9393 148.174 101.399 151.381 113.131C140.113 108.88 127.819 108.154 116.128 111.05C104.438 113.945 93.9036 120.325 85.9215 129.344C77.9395 138.362 72.8867 149.594 71.433 161.549C69.9792 173.505 72.1932 185.62 77.7813 196.288C67.1242 201.987 58.23 210.494 52.0623 220.887C45.8946 231.28 42.6888 243.163 42.7921 255.248C42.8954 267.332 46.3039 279.159 52.6483 289.445C58.9927 299.731 68.031 308.084 78.784 313.6C72.8057 324.215 70.2364 336.412 71.4245 348.537C72.6127 360.662 77.5008 372.128 85.426 381.381C93.3513 390.634 103.93 397.225 115.729 400.262C127.527 403.299 139.974 402.634 151.381 398.358C148.927 406.625 148.442 415.351 149.965 423.839C151.489 432.327 154.977 440.341 160.152 447.239C165.328 454.137 172.045 459.729 179.769 463.565C187.492 467.402 196.006 469.377 204.629 469.334C219.103 469.512 233.06 463.96 243.456 453.888V393.963H227.499C225.426 397.531 222.508 400.536 219.001 402.711C215.494 404.887 211.507 406.167 207.389 406.439C203.271 406.71 199.149 405.966 195.387 404.27C191.625 402.575 188.337 399.98 185.813 396.715C183.702 393.989 182.175 390.858 181.326 387.516C180.477 384.175 180.324 380.694 180.878 377.291C181.432 373.888 182.68 370.635 184.545 367.735C186.41 364.835 188.851 362.35 191.718 360.434C194.584 358.518 197.814 357.213 201.207 356.599C204.6 355.985 208.082 356.075 211.439 356.865C214.795 357.655 217.953 359.127 220.715 361.189C223.478 363.252 225.787 365.86 227.499 368.854H232.277C233.748 368.865 235.207 368.584 236.569 368.026C237.93 367.468 239.167 366.645 240.207 365.605C241.247 364.564 242.07 363.328 242.628 361.966C243.186 360.605 243.467 359.146 243.456 357.675V280.939C243.269 277.733 241.864 274.72 239.528 272.516C237.192 270.312 234.102 269.085 230.891 269.085C227.679 269.085 224.589 270.312 222.253 272.516C219.917 274.72 218.512 277.733 218.325 280.939V306.048C218.32 309.375 216.997 312.565 214.646 314.92C212.296 317.274 209.108 318.602 205.781 318.614H177.259C174.495 323.4 170.229 327.142 165.122 329.257C160.016 331.372 154.354 331.743 149.015 330.313C143.675 328.882 138.958 325.73 135.593 321.344C132.228 316.959 130.404 311.586 130.404 306.059C130.404 300.531 132.228 295.159 135.593 290.773C138.958 286.388 143.675 283.236 149.015 281.805C154.354 280.375 160.016 280.746 165.122 282.861C170.229 284.976 174.495 288.717 177.259 293.504H180.651C183.985 293.499 187.181 292.17 189.537 289.81C191.893 287.45 193.216 284.252 193.216 280.918V230.699C193.21 227.368 191.885 224.175 189.529 221.82C187.174 219.465 183.981 218.139 180.651 218.134H177.259C174.494 222.927 170.226 226.674 165.114 228.793C160.003 230.912 154.335 231.286 148.99 229.855C143.645 228.424 138.922 225.269 135.553 220.88C132.184 216.491 130.358 211.112 130.358 205.579C130.358 200.046 132.184 194.667 135.553 190.278C138.922 185.889 143.645 182.734 148.99 181.303C154.335 179.872 160.003 180.245 165.114 182.365C170.226 184.484 174.494 188.231 177.259 193.024H205.781C209.105 193.035 212.289 194.361 214.639 196.711C216.989 199.061 218.314 202.245 218.325 205.568V230.699C218.325 234.031 219.649 237.227 222.006 239.584C224.362 241.94 227.558 243.264 230.891 243.264C234.223 243.264 237.419 241.94 239.776 239.584C242.132 237.227 243.456 234.031 243.456 230.699V153.963C243.467 152.492 243.186 151.033 242.628 149.672C242.07 148.31 241.247 147.073 240.207 146.033C239.167 144.993 237.93 144.17 236.569 143.612C235.207 143.054 233.748 142.773 232.277 142.784H227.499C224.733 147.575 220.463 151.32 215.352 153.437C210.241 155.554 204.574 155.925 199.231 154.493C193.887 153.061 189.165 149.906 185.797 145.517C182.43 141.129 180.604 135.751 180.604 130.219C180.604 124.687 182.43 119.309 185.797 114.92C189.165 110.531 193.887 107.376 199.231 105.945C204.574 104.513 210.241 104.884 215.352 107.001C220.463 109.118 224.733 112.863 227.499 117.654H243.456V57.8775Z" fill="#ADB5BD"/>
<path d="M268.544 57.8775C277.388 49.5277 288.719 44.2983 300.811 42.9862C312.903 41.674 325.092 44.3512 335.521 50.6096C345.95 56.8681 354.047 66.3646 358.578 77.6519C363.109 88.9393 363.826 101.399 360.619 113.131C371.887 108.88 384.181 108.154 395.872 111.05C407.562 113.945 418.096 120.325 426.078 129.344C434.061 138.362 439.113 149.594 440.567 161.549C442.021 173.505 439.807 185.62 434.219 196.288C442.19 200.552 449.204 206.401 454.83 213.477C460.455 220.554 464.573 228.706 466.929 237.434C469.285 246.161 469.83 255.278 468.53 264.224C467.231 273.17 464.113 281.755 459.371 289.451C453.024 299.74 443.978 308.092 433.216 313.6C439.181 324.216 441.74 336.409 440.547 348.528C439.353 360.646 434.465 372.106 426.543 381.354C418.621 390.603 408.049 397.194 396.258 400.235C384.466 403.276 372.025 402.621 360.619 398.358C363.073 406.625 363.558 415.351 362.035 423.839C360.511 432.327 357.023 440.341 351.848 447.239C346.672 454.137 339.955 459.729 332.231 463.565C324.508 467.402 315.994 469.377 307.371 469.334C292.897 469.512 278.94 463.96 268.544 453.888V393.963H284.501C287.266 398.756 291.534 402.503 296.646 404.622C301.757 406.742 307.425 407.115 312.77 405.684C318.115 404.253 322.838 401.099 326.207 396.709C329.576 392.32 331.402 386.941 331.402 381.408C331.402 375.875 329.576 370.497 326.207 366.107C322.838 361.718 318.115 358.563 312.77 357.132C307.425 355.701 301.757 356.075 296.646 358.194C291.534 360.313 287.266 364.06 284.501 368.854H279.723C278.252 368.865 276.793 368.584 275.431 368.026C274.07 367.468 272.833 366.645 271.793 365.605C270.753 364.564 269.93 363.328 269.372 361.966C268.814 360.605 268.533 359.146 268.544 357.675V280.939C268.731 277.733 270.136 274.72 272.472 272.516C274.808 270.312 277.898 269.085 281.109 269.085C284.321 269.085 287.411 270.312 289.747 272.516C292.083 274.72 293.488 277.733 293.675 280.939V306.048C293.68 309.379 295.006 312.572 297.361 314.927C299.716 317.282 302.909 318.608 306.24 318.614H334.741C337.505 323.4 341.771 327.142 346.878 329.257C351.984 331.372 357.646 331.743 362.985 330.313C368.325 328.882 373.042 325.73 376.407 321.344C379.772 316.959 381.596 311.586 381.596 306.059C381.596 300.531 379.772 295.159 376.407 290.773C373.042 286.388 368.325 283.236 362.985 281.805C357.646 280.375 351.984 280.746 346.878 282.861C341.771 284.976 337.505 288.717 334.741 293.504H331.349C328.015 293.499 324.819 292.17 322.463 289.81C320.107 287.45 318.784 284.252 318.784 280.918V230.699C318.79 227.364 320.118 224.168 322.478 221.813C324.838 219.457 328.036 218.134 331.371 218.134H334.741C337.506 222.927 341.774 226.674 346.886 228.793C351.997 230.912 357.665 231.286 363.01 229.855C368.355 228.424 373.078 225.269 376.447 220.88C379.816 216.491 381.642 211.112 381.642 205.579C381.642 200.046 379.816 194.667 376.447 190.278C373.078 185.889 368.355 182.734 363.01 181.303C357.665 179.872 351.997 180.245 346.886 182.365C341.774 184.484 337.506 188.231 334.741 193.024H306.24C302.909 193.024 299.714 194.344 297.355 196.696C294.996 199.047 293.665 202.237 293.653 205.568V230.699C293.653 234.029 292.331 237.222 289.976 239.576C287.622 241.931 284.428 243.254 281.099 243.254C277.769 243.254 274.576 241.931 272.221 239.576C269.867 237.222 268.544 234.029 268.544 230.699V153.963C268.544 147.67 273.579 142.784 279.723 142.784H284.501C287.267 147.569 291.534 151.307 296.64 153.42C301.747 155.533 307.408 155.903 312.745 154.471C318.083 153.039 322.799 149.887 326.163 145.502C329.527 141.117 331.35 135.745 331.35 130.219C331.35 124.693 329.527 119.32 326.163 114.936C322.799 110.551 318.083 107.398 312.745 105.967C307.408 104.535 301.747 104.904 296.64 107.017C291.534 109.13 287.267 112.869 284.501 117.654H268.544V57.8775Z" fill="#118B50"/>
</svg>
